<svg width="600" height="400" viewBox="0 0 600 400" fill="none" xmlns="http://www.w3.org/2000/svg">
<rect width="600" height="400" rx="12" fill="#F7F8FA"/>
<!-- Background diagram content -->
<rect x="80" y="80" width="100" height="60" rx="8" fill="#0F172A" opacity="0.8"/>
<rect x="220" y="80" width="100" height="60" rx="8" fill="#0F172A" opacity="0.8"/>
<rect x="360" y="80" width="160" height="120" rx="8" fill="#E2E8F0"/>
<rect x="80" y="200" width="80" height="60" rx="8" fill="#0F172A" opacity="0.7"/>
<rect x="220" y="200" width="80" height="60" rx="8" fill="#0F172A" opacity="0.7"/>
<rect x="360" y="240" width="160" height="80" rx="8" fill="#E2E8F0"/>
<!-- Selection box with dashed border -->
<rect x="190" y="50" width="360" height="200" rx="6" fill="none" stroke="#2B5CE6" stroke-width="3" stroke-dasharray="8 4"/>
<!-- Corner handles -->
<rect x="186" y="46" width="12" height="12" rx="2" fill="#2B5CE6"/>
<rect x="542" y="46" width="12" height="12" rx="2" fill="#2B5CE6"/>
<rect x="186" y="242" width="12" height="12" rx="2" fill="#2B5CE6"/>
<rect x="542" y="242" width="12" height="12" rx="2" fill="#2B5CE6"/>
<!-- Brush cursor indicator -->
<circle cx="300" cy="150" r="20" fill="#2B5CE6" opacity="0.2"/>
<circle cx="300" cy="150" r="8" fill="#2B5CE6"/>
<rect x="240" y="320" width="120" height="40" rx="999" fill="#2B5CE6"/>
<text x="300" y="345" text-anchor="middle" font-family="system-ui,sans-serif" font-size="14" font-weight="600" fill="white">Select Region</text>
</svg>
